<svg width="24" height="24" viewBox="0 0 24 24" fill="none" xmlns="http://www.w3.org/2000/svg">
<path d="M9.5 12.2499V13.7499C9.5 14.0814 9.3683 14.3993 9.13388 14.6338C8.89946 14.8682 8.58152 14.9999 8.25 14.9999C7.91848 14.9999 7.60054 14.8682 7.36612 14.6338C7.1317 14.3993 7 14.0814 7 13.7499V12.2499C7 11.9184 7.1317 11.6004 7.36612 11.366C7.60054 11.1316 7.91848 10.9999 8.25 10.9999C8.58152 10.9999 8.89946 11.1316 9.13388 11.366C9.3683 11.6004 9.5 11.9184 9.5 12.2499ZM22 9.49988V17.4999C22 18.4281 21.6313 19.3184 20.9749 19.9748C20.3185 20.6311 19.4283 20.9999 18.5 20.9999H5.5C4.57174 20.9999 3.6815 20.6311 3.02513 19.9748C2.36875 19.3184 2 18.4281 2 17.4999V9.49988C2 8.57162 2.36875 7.68138 3.02513 7.02501C3.6815 6.36863 4.57174 5.99988 5.5 5.99988H7L5.87 4.87988C5.63661 4.64649 5.50549 4.32994 5.50549 3.99988C5.50549 3.66982 5.63661 3.35327 5.87 3.11988C6.10339 2.88649 6.41994 2.75537 6.75 2.75537C7.08006 2.75537 7.39661 2.88649 7.63 3.11988L10.52 5.99988H13.52L16.41 3.11988C16.6434 2.88649 16.9599 2.75537 17.29 2.75537C17.6201 2.75537 17.9366 2.88649 18.17 3.11988C18.4034 3.35327 18.5345 3.66982 18.5345 3.99988C18.5345 4.32994 18.4034 4.64649 18.17 4.87988L17 5.99988H18.5C19.4283 5.99988 20.3185 6.36863 20.9749 7.02501C21.6313 7.68138 22 8.57162 22 9.49988ZM19.5 9.49988C19.5 9.23466 19.3946 8.98031 19.2071 8.79277C19.0196 8.60524 18.7652 8.49988 18.5 8.49988H5.5C5.23478 8.49988 4.98043 8.60524 4.79289 8.79277C4.60536 8.98031 4.5 9.23466 4.5 9.49988V17.4999C4.5 17.7651 4.60536 18.0195 4.79289 18.207C4.98043 18.3945 5.23478 18.4999 5.5 18.4999H18.5C18.7652 18.4999 19.0196 18.3945 19.2071 18.207C19.3946 18.0195 19.5 17.7651 19.5 17.4999V9.49988ZM15.75 10.9999C15.4185 10.9999 15.1005 11.1316 14.8661 11.366C14.6317 11.6004 14.5 11.9184 14.5 12.2499V13.7499C14.5 14.0814 14.6317 14.3993 14.8661 14.6338C15.1005 14.8682 15.4185 14.9999 15.75 14.9999C16.0815 14.9999 16.3995 14.8682 16.6339 14.6338C16.8683 14.3993 17 14.0814 17 13.7499V12.2499C17 11.9184 16.8683 11.6004 16.6339 11.366C16.3995 11.1316 16.0815 10.9999 15.75 10.9999Z" fill="#000028"/>
<mask id="mask0_2718_16291" style="mask-type:alpha" maskUnits="userSpaceOnUse" x="2" y="2" width="20" height="19">
<path d="M9.5 12.2499V13.7499C9.5 14.0814 9.3683 14.3993 9.13388 14.6338C8.89946 14.8682 8.58152 14.9999 8.25 14.9999C7.91848 14.9999 7.60054 14.8682 7.36612 14.6338C7.1317 14.3993 7 14.0814 7 13.7499V12.2499C7 11.9184 7.1317 11.6004 7.36612 11.366C7.60054 11.1316 7.91848 10.9999 8.25 10.9999C8.58152 10.9999 8.89946 11.1316 9.13388 11.366C9.3683 11.6004 9.5 11.9184 9.5 12.2499ZM22 9.49988V17.4999C22 18.4281 21.6313 19.3184 20.9749 19.9748C20.3185 20.6311 19.4283 20.9999 18.5 20.9999H5.5C4.57174 20.9999 3.6815 20.6311 3.02513 19.9748C2.36875 19.3184 2 18.4281 2 17.4999V9.49988C2 8.57162 2.36875 7.68138 3.02513 7.02501C3.6815 6.36863 4.57174 5.99988 5.5 5.99988H7L5.87 4.87988C5.63661 4.64649 5.50549 4.32994 5.50549 3.99988C5.50549 3.66982 5.63661 3.35327 5.87 3.11988C6.10339 2.88649 6.41994 2.75537 6.75 2.75537C7.08006 2.75537 7.39661 2.88649 7.63 3.11988L10.52 5.99988H13.52L16.41 3.11988C16.6434 2.88649 16.9599 2.75537 17.29 2.75537C17.6201 2.75537 17.9366 2.88649 18.17 3.11988C18.4034 3.35327 18.5345 3.66982 18.5345 3.99988C18.5345 4.32994 18.4034 4.64649 18.17 4.87988L17 5.99988H18.5C19.4283 5.99988 20.3185 6.36863 20.9749 7.02501C21.6313 7.68138 22 8.57162 22 9.49988ZM19.5 9.49988C19.5 9.23466 19.3946 8.98031 19.2071 8.79277C19.0196 8.60524 18.7652 8.49988 18.5 8.49988H5.5C5.23478 8.49988 4.98043 8.60524 4.79289 8.79277C4.60536 8.98031 4.5 9.23466 4.5 9.49988V17.4999C4.5 17.7651 4.60536 18.0195 4.79289 18.207C4.98043 18.3945 5.23478 18.4999 5.5 18.4999H18.5C18.7652 18.4999 19.0196 18.3945 19.2071 18.207C19.3946 18.0195 19.5 17.7651 19.5 17.4999V9.49988ZM15.75 10.9999C15.4185 10.9999 15.1005 11.1316 14.8661 11.366C14.6317 11.6004 14.5 11.9184 14.5 12.2499V13.7499C14.5 14.0814 14.6317 14.3993 14.8661 14.6338C15.1005 14.8682 15.4185 14.9999 15.75 14.9999C16.0815 14.9999 16.3995 14.8682 16.6339 14.6338C16.8683 14.3993 17 14.0814 17 13.7499V12.2499C17 11.9184 16.8683 11.6004 16.6339 11.366C16.3995 11.1316 16.0815 10.9999 15.75 10.9999Z" fill="#000028"/>
</mask>
<g mask="url(#mask0_2718_16291)">
<rect width="24" height="24" fill="white"/>
</g>
</svg>
