<svg width="24" height="24" viewBox="0 0 24 24" fill="none" xmlns="http://www.w3.org/2000/svg">
<g id="document-xls">
<g id="Icon">
<path d="M4.00001 2H15L20 7V13H18V7.83L14.17 4H6.00001V13H4.00001V2Z" fill="#000028"/>
<path d="M19.3591 17.7723C19.5021 17.8443 19.6381 17.9283 19.7651 18.0243C20.1131 18.2903 20.2861 18.6953 20.2861 19.2413C20.2861 19.8843 20.0681 20.3723 19.6291 20.7033C19.2561 20.9823 18.7341 21.1223 18.0611 21.1223C17.3611 21.1223 16.6901 21.0093 16.0481 20.7833L16.2441 19.6303C16.9301 19.9193 17.5121 20.0623 17.9901 20.0623C18.3001 20.0623 18.5291 19.9863 18.6761 19.8343C18.8031 19.7013 18.8671 19.5393 18.8671 19.3463C18.8671 19.1743 18.8041 19.0403 18.6801 18.9443C18.5561 18.8473 18.2491 18.7003 17.7601 18.4993C17.3991 18.3493 17.1441 18.2373 16.9951 18.1643C16.8471 18.0903 16.7101 18.0073 16.5861 17.9143C16.2331 17.6513 16.0571 17.2723 16.0571 16.7783C16.0571 16.3513 16.1721 15.9773 16.4051 15.6553C16.7601 15.1553 17.3451 14.9053 18.1591 14.9053C18.7461 14.9053 19.3851 15.0133 20.0751 15.2313L19.8031 16.3333C19.3971 16.1833 19.0901 16.0853 18.8861 16.0363C18.6811 15.9883 18.4671 15.9643 18.2441 15.9643C17.9901 15.9643 17.7951 16.0213 17.6631 16.1333C17.5251 16.2553 17.4551 16.4093 17.4551 16.5953C17.4551 16.7563 17.5141 16.8833 17.6311 16.9753C17.7481 17.0673 18.0311 17.2053 18.4771 17.3883C18.9201 17.5723 19.2141 17.7003 19.3591 17.7723Z" fill="#000028"/>
<path d="M6.99091 16.969L8.40691 15.011H9.95391L7.77191 17.969L9.97891 21.017H8.34791L6.92391 19.012L5.50691 21.017H3.90991L6.13091 17.935L4.01991 15.011H5.59291L6.99091 16.969Z" fill="#000028"/>
<path d="M11.142 15.011V21.017H15.075V19.957H12.495V15.011H11.142Z" fill="#000028"/>
<path d="M4.00001 2H15L20 7V13H18V7.83L14.17 4H6.00001V13H4.00001V2Z" fill="#000028"/>
<path d="M19.3591 17.7723C19.5021 17.8443 19.6381 17.9283 19.7651 18.0243C20.1131 18.2903 20.2861 18.6953 20.2861 19.2413C20.2861 19.8843 20.0681 20.3723 19.6291 20.7033C19.2561 20.9823 18.7341 21.1223 18.0611 21.1223C17.3611 21.1223 16.6901 21.0093 16.0481 20.7833L16.2441 19.6303C16.9301 19.9193 17.5121 20.0623 17.9901 20.0623C18.3001 20.0623 18.5291 19.9863 18.6761 19.8343C18.8031 19.7013 18.8671 19.5393 18.8671 19.3463C18.8671 19.1743 18.8041 19.0403 18.6801 18.9443C18.5561 18.8473 18.2491 18.7003 17.7601 18.4993C17.3991 18.3493 17.1441 18.2373 16.9951 18.1643C16.8471 18.0903 16.7101 18.0073 16.5861 17.9143C16.2331 17.6513 16.0571 17.2723 16.0571 16.7783C16.0571 16.3513 16.1721 15.9773 16.4051 15.6553C16.7601 15.1553 17.3451 14.9053 18.1591 14.9053C18.7461 14.9053 19.3851 15.0133 20.0751 15.2313L19.8031 16.3333C19.3971 16.1833 19.0901 16.0853 18.8861 16.0363C18.6811 15.9883 18.4671 15.9643 18.2441 15.9643C17.9901 15.9643 17.7951 16.0213 17.6631 16.1333C17.5251 16.2553 17.4551 16.4093 17.4551 16.5953C17.4551 16.7563 17.5141 16.8833 17.6311 16.9753C17.7481 17.0673 18.0311 17.2053 18.4771 17.3883C18.9201 17.5723 19.2141 17.7003 19.3591 17.7723Z" fill="#000028"/>
<path d="M6.99091 16.969L8.40691 15.011H9.95391L7.77191 17.969L9.97891 21.017H8.34791L6.92391 19.012L5.50691 21.017H3.90991L6.13091 17.935L4.01991 15.011H5.59291L6.99091 16.969Z" fill="#000028"/>
<path d="M11.142 15.011V21.017H15.075V19.957H12.495V15.011H11.142Z" fill="#000028"/>
</g>
</g>
</svg>
