<svg width="24" height="24" viewBox="0 0 24 24" fill="none" xmlns="http://www.w3.org/2000/svg">
<path d="M3.9978 2H14.9978L19.9978 7V13H17.9978V7.82837L14.1694 4H5.9978V13H3.9978V2Z" fill="#000028"/>
<path d="M9.29889 15.0088V15.9639L6.37311 19.957H9.40338V21.0166H4.67975V20.0615L7.60553 16.0674H4.78424V15.0088H9.29889Z" fill="#000028"/>
<path fill-rule="evenodd" clip-rule="evenodd" d="M18.6007 15.3994C18.2013 15.0957 17.7579 15.0088 16.7081 15.0088H15.0148V21.0166H16.3693V18.7246H16.9337C17.7667 18.7246 18.2443 18.6025 18.6183 18.3164C19.0265 17.9863 19.2521 17.4658 19.2521 16.8574C19.2521 16.2324 19.0177 15.7119 18.6007 15.3994ZM17.5323 17.5869C17.3331 17.6914 17.1857 17.709 16.7247 17.709H16.3341V16.0244H16.7247C17.1681 16.0244 17.3419 16.0586 17.5499 16.1807C17.7667 16.3193 17.8976 16.5801 17.8976 16.9014C17.8976 17.2314 17.7667 17.4746 17.5323 17.5869Z" fill="#000028"/>
<path d="M11.2581 15.0088H12.6126V21.0166H11.2581V15.0088Z" fill="#000028"/>
</svg>
