<svg width="24" height="24" viewBox="0 0 24 24" fill="none" xmlns="http://www.w3.org/2000/svg">
<g id="document pdf">
<path id="document pdf_2" fill-rule="evenodd" clip-rule="evenodd" d="M4 2H15L20 7V13H18V11V9.95V7.83L14.17 4H6V9.95V11V13H4V2ZM11.07 15H9.41003V21H11C11.8104 21.0793 12.6263 20.9231 13.35 20.55C14.1463 19.9565 14.5718 18.9879 14.47 18C14.5296 17.1537 14.2281 16.3216 13.64 15.71C12.9136 15.1375 11.9873 14.8816 11.07 15ZM12.39 19.6401C11.9734 19.8742 11.4964 19.9787 11.02 19.9401H10.76V16.0601H11C11.84 16.0601 12.17 16.1401 12.5 16.4401C12.9005 16.857 13.1073 17.4231 13.07 18.0001C13.1215 18.6245 12.8682 19.2353 12.39 19.6401ZM7.56 15.39C6.99421 15.045 6.32616 14.9072 5.67 15H4V21H5.33V18.71H5.9C6.49049 18.7707 7.08384 18.6259 7.58 18.3C8.00114 17.9388 8.23334 17.4044 8.21 16.85C8.24118 16.2871 7.99921 15.7436 7.56 15.39ZM6.49005 17.58C6.23884 17.6906 5.96264 17.732 5.69005 17.7H5.30005V16H5.69005C5.97324 15.9699 6.25894 16.0257 6.51005 16.16C6.7439 16.3229 6.87642 16.5955 6.86005 16.88C6.89034 17.1668 6.74411 17.4435 6.49005 17.58ZM15.9301 21H17.2801V18.49H20.0001V17.43H17.2801V16.06H20.0001V15H15.9301V21Z" fill="white"/>
<mask id="mask0_2_5215" style="mask-type:alpha" maskUnits="userSpaceOnUse" x="4" y="2" width="16" height="20">
<path id="document pdf_3" fill-rule="evenodd" clip-rule="evenodd" d="M4 2H15L20 7V13H18V11V9.95V7.83L14.17 4H6V9.95V11V13H4V2ZM11.07 15H9.41003V21H11C11.8104 21.0793 12.6263 20.9231 13.35 20.55C14.1463 19.9565 14.5718 18.9879 14.47 18C14.5296 17.1537 14.2281 16.3216 13.64 15.71C12.9136 15.1375 11.9873 14.8816 11.07 15ZM12.39 19.6401C11.9734 19.8742 11.4964 19.9787 11.02 19.9401H10.76V16.0601H11C11.84 16.0601 12.17 16.1401 12.5 16.4401C12.9005 16.857 13.1073 17.4231 13.07 18.0001C13.1215 18.6245 12.8682 19.2353 12.39 19.6401ZM7.56 15.39C6.99421 15.045 6.32616 14.9072 5.67 15H4V21H5.33V18.71H5.9C6.49049 18.7707 7.08384 18.6259 7.58 18.3C8.00114 17.9388 8.23334 17.4044 8.21 16.85C8.24118 16.2871 7.99921 15.7436 7.56 15.39ZM6.49005 17.58C6.23884 17.6906 5.96264 17.732 5.69005 17.7H5.30005V16H5.69005C5.97324 15.9699 6.25894 16.0257 6.51005 16.16C6.7439 16.3229 6.87642 16.5955 6.86005 16.88C6.89034 17.1668 6.74411 17.4435 6.49005 17.58ZM15.9301 21H17.2801V18.49H20.0001V17.43H17.2801V16.06H20.0001V15H15.9301V21Z" fill="white"/>
</mask>
<g mask="url(#mask0_2_5215)">
<rect id="Color" width="24" height="24" fill="white"/>
</g>
</g>
</svg>
