<svg width="24" height="24" viewBox="0 0 24 24" fill="none" xmlns="http://www.w3.org/2000/svg">
<g id="document-ppt">
<g id="Icon">
<path d="M3.99997 2H15L20 7V13H18V7.83L14.17 4H5.99997V13H3.99997V2Z" fill="#000028"/>
<path fill-rule="evenodd" clip-rule="evenodd" d="M11.592 14.9946C12.168 14.9946 12.607 15.0326 12.91 15.1086C13.328 15.2166 13.647 15.4526 13.867 15.8166C14.046 16.1076 14.135 16.4486 14.135 16.8386C14.135 17.4736 13.923 17.9616 13.499 18.3006C13.315 18.4476 13.093 18.5536 12.831 18.6166C12.57 18.6796 12.233 18.7116 11.82 18.7116H11.253V21.0006H9.89997V14.9946H11.592ZM11.608 17.6946C11.984 17.6946 12.254 17.6546 12.418 17.5756C12.661 17.4576 12.782 17.2266 12.782 16.8856C12.782 16.5496 12.665 16.3096 12.431 16.1686C12.259 16.0636 11.984 16.0126 11.608 16.0126H11.219V17.6946H11.608Z" fill="#000028"/>
<path fill-rule="evenodd" clip-rule="evenodd" d="M5.69157 15.0112C6.26757 15.0112 6.70657 15.0492 7.00957 15.1252C7.42757 15.2332 7.74657 15.4692 7.96657 15.8332C8.14557 16.1242 8.23457 16.4652 8.23457 16.8552C8.23457 17.4902 8.02257 17.9782 7.59857 18.3172C7.41457 18.4642 7.19257 18.5702 6.93057 18.6332C6.66957 18.6962 6.33257 18.7282 5.91957 18.7282H5.35257V21.0172H3.99957V15.0112H5.69157ZM5.70757 17.7112C6.08357 17.7112 6.35357 17.6712 6.51757 17.5922C6.76057 17.4742 6.88157 17.2432 6.88157 16.9022C6.88157 16.5662 6.76457 16.3262 6.53057 16.1852C6.35857 16.0802 6.08357 16.0292 5.70757 16.0292H5.31857V17.7112H5.70757Z" fill="#000028"/>
<path d="M15.147 15.0111V16.0711H16.884V21.0171H18.237V16.0711H20V15.0111H15.147Z" fill="#000028"/>
<path d="M3.99997 2H15L20 7V13H18V7.83L14.17 4H5.99997V13H3.99997V2Z" fill="#000028"/>
<path fill-rule="evenodd" clip-rule="evenodd" d="M11.592 14.9946C12.168 14.9946 12.607 15.0326 12.91 15.1086C13.328 15.2166 13.647 15.4526 13.867 15.8166C14.046 16.1076 14.135 16.4486 14.135 16.8386C14.135 17.4736 13.923 17.9616 13.499 18.3006C13.315 18.4476 13.093 18.5536 12.831 18.6166C12.57 18.6796 12.233 18.7116 11.82 18.7116H11.253V21.0006H9.89997V14.9946H11.592ZM11.608 17.6946C11.984 17.6946 12.254 17.6546 12.418 17.5756C12.661 17.4576 12.782 17.2266 12.782 16.8856C12.782 16.5496 12.665 16.3096 12.431 16.1686C12.259 16.0636 11.984 16.0126 11.608 16.0126H11.219V17.6946H11.608Z" fill="#000028"/>
<path fill-rule="evenodd" clip-rule="evenodd" d="M5.69157 15.0112C6.26757 15.0112 6.70657 15.0492 7.00957 15.1252C7.42757 15.2332 7.74657 15.4692 7.96657 15.8332C8.14557 16.1242 8.23457 16.4652 8.23457 16.8552C8.23457 17.4902 8.02257 17.9782 7.59857 18.3172C7.41457 18.4642 7.19257 18.5702 6.93057 18.6332C6.66957 18.6962 6.33257 18.7282 5.91957 18.7282H5.35257V21.0172H3.99957V15.0112H5.69157ZM5.70757 17.7112C6.08357 17.7112 6.35357 17.6712 6.51757 17.5922C6.76057 17.4742 6.88157 17.2432 6.88157 16.9022C6.88157 16.5662 6.76457 16.3262 6.53057 16.1852C6.35857 16.0802 6.08357 16.0292 5.70757 16.0292H5.31857V17.7112H5.70757Z" fill="#000028"/>
<path d="M15.147 15.0111V16.0711H16.884V21.0171H18.237V16.0711H20V15.0111H15.147Z" fill="#000028"/>
</g>
</g>
</svg>
