<svg width="24" height="24" viewBox="0 0 24 24" fill="none" xmlns="http://www.w3.org/2000/svg">
<g id="document-doc">
<g id="Icon">
<path d="M4.00002 2H15L20 7V13H18V7.83L14.17 4H6.00002V13H4.00002V2Z" fill="#000028"/>
<path fill-rule="evenodd" clip-rule="evenodd" d="M14.2756 15.8038C13.7726 15.2038 13.0496 14.9048 12.1056 14.9048C11.2416 14.9048 10.5616 15.1548 10.0676 15.6548C9.49662 16.2368 9.21062 17.0118 9.21062 17.9778C9.21062 18.9018 9.45262 19.6508 9.93562 20.2238C10.4386 20.8228 11.1626 21.1218 12.1056 21.1218C12.9726 21.1218 13.6526 20.8708 14.1446 20.3678C14.7146 19.7858 14.9996 19.0018 14.9996 18.0158C14.9996 17.1138 14.7586 16.3768 14.2756 15.8038ZM10.9696 16.5748C11.2356 16.1678 11.6126 15.9648 12.1016 15.9648C12.5476 15.9648 12.9056 16.1388 13.1736 16.4858C13.4586 16.8538 13.6016 17.3628 13.6016 18.0158C13.6016 18.6098 13.4816 19.0868 13.2416 19.4478C12.9706 19.8588 12.5916 20.0628 12.1056 20.0628C11.6626 20.0628 11.3056 19.8898 11.0376 19.5418C10.7516 19.1748 10.6096 18.6568 10.6096 17.9898C10.6096 17.4138 10.7296 16.9428 10.9696 16.5748Z" fill="#000028"/>
<path fill-rule="evenodd" clip-rule="evenodd" d="M3.36462 15.011V21.017H4.93362C5.48462 21.017 5.93662 20.987 6.28962 20.928C7.05862 20.801 7.62562 20.438 7.99262 19.843C8.28662 19.371 8.43462 18.762 8.43462 18.016C8.43462 17.29 8.28662 16.686 7.99262 16.204C7.69862 15.723 7.27562 15.393 6.72162 15.215C6.29762 15.079 5.73362 15.011 5.02662 15.011H3.36462ZM4.97562 19.957H4.71762V16.07H4.97562C5.39662 16.07 5.71162 16.097 5.92062 16.149C6.12962 16.201 6.31662 16.301 6.48062 16.447C6.65262 16.603 6.78762 16.819 6.88762 17.096C6.98662 17.373 7.03562 17.674 7.03562 17.999C7.03562 18.302 6.99262 18.587 6.90762 18.855C6.79262 19.217 6.60462 19.483 6.34462 19.656C6.04762 19.856 5.59162 19.957 4.97562 19.957Z" fill="#000028"/>
<path d="M20.3683 19.6005L20.7633 20.6815C20.4063 20.8545 20.0963 20.9705 19.8303 21.0315C19.5643 21.0915 19.2363 21.1215 18.8473 21.1215C18.2593 21.1215 17.7733 21.0375 17.3893 20.8685C16.8513 20.6305 16.4463 20.2565 16.1733 19.7455C15.9273 19.2875 15.8043 18.7275 15.8043 18.0665C15.8043 16.9515 16.1443 16.1055 16.8253 15.5325C17.3193 15.1145 17.9713 14.9055 18.7793 14.9055C19.1243 14.9055 19.4373 14.9365 19.7203 14.9995C20.0023 15.0635 20.3233 15.1755 20.6813 15.3365L20.2283 16.3545C19.7513 16.0945 19.2933 15.9645 18.8553 15.9645C18.3273 15.9645 17.9233 16.1455 17.6433 16.5065C17.3493 16.8855 17.2023 17.3855 17.2023 18.0075C17.2023 18.6515 17.3563 19.1555 17.6643 19.5185C17.9723 19.8815 18.3973 20.0625 18.9403 20.0625C19.1853 20.0625 19.4123 20.0305 19.6183 19.9635C19.8243 19.8975 20.0743 19.7765 20.3683 19.6005Z" fill="#000028"/>
<path d="M4.00002 2H15L20 7V13H18V7.83L14.17 4H6.00002V13H4.00002V2Z" fill="#000028"/>
<path fill-rule="evenodd" clip-rule="evenodd" d="M14.2756 15.8038C13.7726 15.2038 13.0496 14.9048 12.1056 14.9048C11.2416 14.9048 10.5616 15.1548 10.0676 15.6548C9.49662 16.2368 9.21062 17.0118 9.21062 17.9778C9.21062 18.9018 9.45262 19.6508 9.93562 20.2238C10.4386 20.8228 11.1626 21.1218 12.1056 21.1218C12.9726 21.1218 13.6526 20.8708 14.1446 20.3678C14.7146 19.7858 14.9996 19.0018 14.9996 18.0158C14.9996 17.1138 14.7586 16.3768 14.2756 15.8038ZM10.9696 16.5748C11.2356 16.1678 11.6126 15.9648 12.1016 15.9648C12.5476 15.9648 12.9056 16.1388 13.1736 16.4858C13.4586 16.8538 13.6016 17.3628 13.6016 18.0158C13.6016 18.6098 13.4816 19.0868 13.2416 19.4478C12.9706 19.8588 12.5916 20.0628 12.1056 20.0628C11.6626 20.0628 11.3056 19.8898 11.0376 19.5418C10.7516 19.1748 10.6096 18.6568 10.6096 17.9898C10.6096 17.4138 10.7296 16.9428 10.9696 16.5748Z" fill="#000028"/>
<path fill-rule="evenodd" clip-rule="evenodd" d="M3.36462 15.011V21.017H4.93362C5.48462 21.017 5.93662 20.987 6.28962 20.928C7.05862 20.801 7.62562 20.438 7.99262 19.843C8.28662 19.371 8.43462 18.762 8.43462 18.016C8.43462 17.29 8.28662 16.686 7.99262 16.204C7.69862 15.723 7.27562 15.393 6.72162 15.215C6.29762 15.079 5.73362 15.011 5.02662 15.011H3.36462ZM4.97562 19.957H4.71762V16.07H4.97562C5.39662 16.07 5.71162 16.097 5.92062 16.149C6.12962 16.201 6.31662 16.301 6.48062 16.447C6.65262 16.603 6.78762 16.819 6.88762 17.096C6.98662 17.373 7.03562 17.674 7.03562 17.999C7.03562 18.302 6.99262 18.587 6.90762 18.855C6.79262 19.217 6.60462 19.483 6.34462 19.656C6.04762 19.856 5.59162 19.957 4.97562 19.957Z" fill="#000028"/>
<path d="M20.3683 19.6005L20.7633 20.6815C20.4063 20.8545 20.0963 20.9705 19.8303 21.0315C19.5643 21.0915 19.2363 21.1215 18.8473 21.1215C18.2593 21.1215 17.7733 21.0375 17.3893 20.8685C16.8513 20.6305 16.4463 20.2565 16.1733 19.7455C15.9273 19.2875 15.8043 18.7275 15.8043 18.0665C15.8043 16.9515 16.1443 16.1055 16.8253 15.5325C17.3193 15.1145 17.9713 14.9055 18.7793 14.9055C19.1243 14.9055 19.4373 14.9365 19.7203 14.9995C20.0023 15.0635 20.3233 15.1755 20.6813 15.3365L20.2283 16.3545C19.7513 16.0945 19.2933 15.9645 18.8553 15.9645C18.3273 15.9645 17.9233 16.1455 17.6433 16.5065C17.3493 16.8855 17.2023 17.3855 17.2023 18.0075C17.2023 18.6515 17.3563 19.1555 17.6643 19.5185C17.9723 19.8815 18.3973 20.0625 18.9403 20.0625C19.1853 20.0625 19.4123 20.0305 19.6183 19.9635C19.8243 19.8975 20.0743 19.7765 20.3683 19.6005Z" fill="#000028"/>
</g>
</g>
</svg>
