<?xml version="1.0" encoding="UTF-8"?>
<svg width="22px" height="20px" viewBox="0 0 22 20" version="1.1" xmlns="http://www.w3.org/2000/svg" xmlns:xlink="http://www.w3.org/1999/xlink">
    <title>2AA76833-85B4-4AC7-9082-512D89DEADFA</title>
    <defs>
        <path d="M10.0159451,0.000351930072 C4.79052912,-0.00776757057 0.439840029,4.00862854 0.0310534894,9.2180365 C-0.37773305,14.4274444 3.29322157,19.0733056 8.45594506,19.8803519 L8.45594506,12.8803519 L5.91594506,12.8803519 L5.91594506,10.0003519 L8.45594506,10.0003519 L8.45594506,7.80035193 C8.34278376,6.75940532 8.69892141,5.72211477 9.42763004,4.97021116 C10.1563387,4.21830755 11.1819646,3.82985268 12.2259451,3.91035193 C12.9761892,3.92014704 13.7247695,3.98364269 14.4659451,4.10035193 L14.4659451,6.56035193 L13.2059451,6.56035193 C12.7713684,6.50440905 12.3348004,6.64797741 12.0182501,6.95093351 C11.7016998,7.25388961 11.5391192,7.6837396 11.5759451,8.12035193 L11.5759451,10.0003519 L14.3559451,10.0003519 L13.9059451,12.8903519 L11.5759451,12.8903519 L11.5759451,19.8903519 C16.769952,19.114775 20.479116,14.4536082 20.0684875,9.2180937 C19.6578589,3.98257924 15.2673563,-0.0433195889 10.0159451,0.000351930072 Z" id="path-1-facebook"></path>
    </defs>
    <g id="✅✅-Footer" stroke="none" stroke-width="1" fill-rule="evenodd">
        <g id="Component-/-Footer-/-XS-" transform="translate(-269.000000, -170.000000)">
            <g id="Fluid-Web-Icons/linked-in-Copy-10" transform="translate(269.984055, 169.999648)">
                <use id="facebook" fill-rule="nonzero" xlink:href="#path-1-facebook"></use>
            </g>
        </g>
    </g>
</svg>
