<?xml version="1.0" encoding="UTF-8"?>
<svg width="20px" height="20px" viewBox="0 0 16 16" version="1.1" xmlns="http://www.w3.org/2000/svg" xmlns:xlink="http://www.w3.org/1999/xlink">
    <!-- Generator: Sketch 61.1 (89650) - https://sketch.com -->
    <title>icon/globe</title>
    <desc>Created with Sketch.</desc>
    <defs>
        <path d="M8,0 C3.581722,0 0,3.581722 0,8 C0,12.418278 3.581722,16 8,16 C12.418278,16 16,12.418278 16,8 C16,5.87826808 15.1571453,3.84343678 13.6568542,2.34314575 C12.1565632,0.842854723 10.1217319,0 8,0 Z M8,14.5 C5.87541964,14.5001838 3.88484451,13.4620477 2.66901171,11.7197526 C1.4531789,9.97745743 1.16556548,7.75093673 1.89875,5.756875 L2.419375,7.5725 L3.525,9.21125 L4.705,9.21125 L4.705,10.0075 L5.544375,11.0075 L5.544375,12.82 L6.339375,13.703125 L8.579375,10.118125 L8.579375,8.596875 L5.324375,7.71125 L4.875,7.71125 L4.51875,7.1825 L5.26125,6.245 L6.4875,6.245 L7.2025,3.91 L5.68125,2.545625 L4.46875,2.545625 C6.28037166,1.37059558 8.55769574,1.17334151 10.544375,2.019375 L10.544375,2.858125 L9.61125,3.27375 L10.22125,4.64375 L11.049375,4.275 L13.32375,4.275 C13.6493588,4.7386435 13.9128491,5.24293099 14.1075,5.775 L11.25,5.775 L9.911875,7.26125 L10.148125,8.94375 L11.648125,8.94375 L12.080625,12.0225 L13.10125,12.0225 C11.8705144,13.5866469 9.99029282,14.4998052 8,14.5 L8,14.5 Z" id="path-1"></path>
    </defs>
    <g id="icon/globe" stroke="none" stroke-width="1" fill="none" fill-rule="evenodd">
        <mask id="mask-2" fill="white">
            <use xlink:href="#path-1"></use>
        </mask>
        <use id="globe" fill="#FFFFFF" fill-rule="nonzero" xlink:href="#path-1"></use>
    </g>
</svg>
