<?xml version="1.0" encoding="UTF-8"?>
<svg width="20px" height="20px" viewBox="0 0 20 20" version="1.1" xmlns="http://www.w3.org/2000/svg" xmlns:xlink="http://www.w3.org/1999/xlink">
    <title>B445260A-93A9-453F-9E51-BD03B3F68A00</title>
    <defs>
        <path d="M11.245717,-0.00105776239 C11.3160332,-0.000989431487 11.3840197,-0.000907434402 11.4498178,-0.000809037901 L11.9867265,0.000593112245 C13.0115598,0.00479956268 13.3993149,0.0178862974 14.1186006,0.0586005831 C14.9483023,0.078048328 15.7691976,0.233444134 16.5486006,0.518600583 C17.2167951,0.770263792 17.821181,1.16635849 18.3186006,1.67860058 C18.8308427,2.17602021 19.2269374,2.78040609 19.4786006,3.44860058 C19.763757,4.22800358 19.9191528,5.04889882 19.9386006,5.87860058 C19.9493149,6.0678863 19.9581159,6.23421283 19.9653453,6.39523233 L19.9732881,6.58703808 C19.9913684,7.06583273 19.9965343,7.56041181 19.9980102,8.54738338 L19.9983765,10.2810632 C19.9943914,12.7438047 19.9386006,13.0964577 19.9386006,14.1186006 C19.9191528,14.9483023 19.763757,15.7691976 19.4786006,16.5486006 C18.9510813,17.8896991 17.8896991,18.9510813 16.5486006,19.4786006 C15.7691976,19.763757 14.9483023,19.9191528 14.1186006,19.9386006 C13.2857434,19.9857434 12.8973761,19.9958455 11.4498178,19.9980102 L8.54738338,19.9980102 C7.56041181,19.9965343 7.06583273,19.9913684 6.58703808,19.9732881 L6.39523233,19.9653453 C6.23421283,19.9581159 6.0678863,19.9493149 5.87860058,19.9386006 C5.04889882,19.9191528 4.22800358,19.763757 3.44860058,19.4786006 C2.78040609,19.2269374 2.17602021,18.8308427 1.67860058,18.3186006 C1.16635849,17.821181 0.770263792,17.2167951 0.518600583,16.5486006 C0.233444134,15.7691976 0.078048328,14.9483023 0.0586005831,14.1186006 C0.0178862974,13.3993149 0.00479956268,13.0115598 0.000593112245,11.9867265 L-0.000809037901,11.4498178 C-0.000907434402,11.3840197 -0.000989431487,11.3160332 -0.00105776239,11.245717 L-0.00105776239,8.75148415 C-0.000989431487,8.681168 -0.000907434402,8.61318149 -0.000809037901,8.54738338 L0.000593112245,8.01047467 C0.00324981778,7.36321155 0.00944879738,6.9700738 0.0239130831,6.58703808 L0.0318558673,6.39523233 C0.039085277,6.23421283 0.0478862974,6.0678863 0.0586005831,5.87860058 C0.078048328,5.04889882 0.233444134,4.22800358 0.518600583,3.44860058 C0.770263792,2.78040609 1.16635849,2.17602021 1.67860058,1.67860058 C2.17602021,1.16635849 2.78040609,0.770263792 3.44860058,0.518600583 C4.22800358,0.233444134 5.04889882,0.078048328 5.87860058,0.0586005831 C6.0678863,0.0478862974 6.23421283,0.039085277 6.39523233,0.0318558673 L6.58703808,0.0239130831 C6.9700738,0.00944879738 7.36321155,0.00324981778 8.01047467,0.000593112245 L8.54738338,-0.000809037901 C8.61318149,-0.000907434402 8.681168,-0.000989431487 8.75148415,-0.00105776239 Z M11.2603087,1.79898162 L9.71553195,1.7988414 C7.34032898,1.80296272 6.96156355,1.85860058 5.99860058,1.85860058 C5.35038048,1.86131191 4.70753427,1.97634755 4.09860058,2.19860058 C3.22651596,2.53695968 2.53695968,3.22651596 2.19860058,4.09860058 C1.97634755,4.70753427 1.86131191,5.35038048 1.85860058,5.99860058 C1.80971169,6.8134154 1.8006582,7.20995861 1.79898162,8.75164636 L1.7988414,10.2816692 C1.80296272,12.6568722 1.85860058,13.0356376 1.85860058,13.9986006 C1.86131191,14.6468207 1.97634755,15.2896669 2.19860058,15.8986006 C2.53695968,16.7706852 3.22651596,17.4602415 4.09860058,17.7986006 C4.72260916,18.011844 5.37932791,18.1133984 6.03860058,18.0986006 C6.22378577,18.1097117 6.38736602,18.1187652 6.54769473,18.1261421 L6.73970306,18.1342141 C7.12529672,18.148846 7.53444776,18.1546987 8.22087361,18.1570398 L8.58836739,18.1579421 C8.65385893,18.1580519 8.72156964,18.1581433 8.79164636,18.1582195 L10.8355279,18.1581891 C12.7586006,18.1558845 13.1497117,18.143045 14.0386006,18.0986006 C14.6733717,18.0913199 15.3023029,17.976354 15.8986006,17.7586006 C16.7706852,17.4202415 17.4602415,16.7306852 17.7986006,15.8586006 C18.016354,15.2623029 18.1313199,14.6333717 18.1386006,13.9986006 C18.1497117,13.8134154 18.1587652,13.6498352 18.1661421,13.4895064 L18.1742141,13.2974981 C18.188846,12.9119044 18.1946987,12.5027534 18.1970398,11.8163276 L18.1979421,11.4488338 C18.1980519,11.3833422 18.1981433,11.3156315 18.1982195,11.2455548 L18.1981891,9.20167329 C18.1958845,7.27860058 18.183045,6.88748947 18.1386006,5.99860058 C18.1230934,5.34802086 17.9945093,4.7051 17.7586006,4.09860058 C17.4202415,3.22651596 16.7306852,2.53695968 15.8586006,2.19860058 C15.2623029,1.98084718 14.6333717,1.86588126 13.9986006,1.85860058 C13.1837858,1.80971169 12.8137995,1.8006582 11.2603087,1.79898162 Z M9.99860058,4.85860058 C11.3618133,4.85860058 12.6691925,5.40013474 13.6331294,6.36407173 C14.5970664,7.32800871 15.1386006,8.63538783 15.1386006,9.99860058 C15.1386006,12.8373442 12.8373442,15.1386006 9.99860058,15.1386006 C7.15985697,15.1386006 4.85860058,12.8373442 4.85860058,9.99860058 C4.85860058,7.15985697 7.15985697,4.85860058 9.99860058,4.85860058 Z M9.99860058,6.66860058 C8.15949237,6.66860058 6.66860058,8.15949237 6.66860058,9.99860058 C6.66860058,11.8377088 8.15949237,13.3286006 9.99860058,13.3286006 C10.8817715,13.3286006 11.72877,12.9777623 12.3532662,12.3532662 C12.9777623,11.72877 13.3286006,10.8817715 13.3286006,9.99860058 C13.3286006,8.15949237 11.8377088,6.66860058 9.99860058,6.66860058 Z M15.3386006,3.45860058 C16.0013423,3.45860058 16.5386006,3.99585888 16.5386006,4.65860058 C16.5386006,5.32134228 16.0013423,5.85860058 15.3386006,5.85860058 C14.6758589,5.85860058 14.1386006,5.32134228 14.1386006,4.65860058 C14.1386006,3.99585888 14.6758589,3.45860058 15.3386006,3.45860058 Z" id="path-1"></path>
    </defs>
    <g id="✅✅-Footer" stroke="none" stroke-width="1" fill="none" fill-rule="evenodd">
        <g id="Component-/-Footer-/-XS-" transform="translate(-318.000000, -170.000000)">
            <g id="Fluid-Web-Icons/linked-in-Copy-11" transform="translate(318.001399, 170.001399)">
                <mask id="mask-2" fill="white">
                    <use xlink:href="#path-1"></use>
                </mask>
                <use id="Mask" fill="#000028" fill-rule="nonzero" xlink:href="#path-1"></use>
                <rect id="Color" fill="transparent" mask="url(#mask-2)" x="-2.00139942" y="-2.00139942" width="24" height="24"></rect>
            </g>
        </g>
    </g>
</svg>