<?xml version="1.0" encoding="UTF-8"?>
<svg width="20px" height="20px" viewBox="0 0 20 20" version="1.1" xmlns="http://www.w3.org/2000/svg" xmlns:xlink="http://www.w3.org/1999/xlink">
    <title>E3050730-D1D9-4042-A87A-C28C96A4E120</title>
    <defs>
        <path d="M18.52,0.0012397669 L1.52,0.0012397669 C1.12594461,-0.0150006023 0.742080671,0.128870941 0.455772261,0.400110487 C0.169463852,0.671350033 0.00506808286,1.04688243 0,1.44123977 L0,18.5612398 C0.00526815029,18.9484675 0.164164837,19.3177383 0.441726662,19.5877985 C0.719288486,19.8578586 1.09277329,20.0065806 1.48,20.0012398 L18.48,20.0012398 C18.8740554,20.0174801 19.2579193,19.8736086 19.5442277,19.602369 C19.8305361,19.3311295 19.9949319,18.9555971 20,18.5612398 L20,1.44123977 C19.9947318,1.05401206 19.8358352,0.684741211 19.5582733,0.414681058 C19.2807115,0.144620905 18.9072267,-0.00410104753 18.52,0.0012397669 Z M5.93,17.0012398 L3,17.0012398 L3,7.50123977 L6,7.50123977 L5.93,17.0012398 Z M4.45,6.19123977 C3.50007023,6.19123977 2.73,5.42116954 2.73,4.47123977 C2.73,3.52131 3.50007023,2.75123977 4.45,2.75123977 C5.39992977,2.75123977 6.17,3.52131 6.17,4.47123977 C6.17,5.42116954 5.39992977,6.19123977 4.45,6.19123977 L4.45,6.19123977 Z M17,17.0012398 L14,17.0012398 L14,12.4012398 C14,11.2912398 14,9.87123977 12.46,9.87123977 C10.92,9.87123977 10.68,11.0812398 10.68,12.3212398 L10.68,17.0012398 L7.68,17.0012398 L7.68,7.50123977 L10.53,7.50123977 L10.53,8.80123977 L10.53,8.80123977 C11.1064682,7.80934142 12.1836087,7.21691415 13.33,7.26123977 C16.33,7.26123977 16.89,9.26123977 16.89,11.8112398 L17,17.0012398 Z" id="path-1-linkedin"></path>
    </defs>
    <g id="✅✅-Footer" stroke="none" stroke-width="1" fill-rule="evenodd">
        <g id="Component-/-Footer-/-XS-" transform="translate(-174.000000, -170.000000)">
            <g id="Fluid-Web-Icons/linked-in-Copy-8" transform="translate(174.000000, 169.998760)">
                <use id="linkedin" fill-rule="nonzero" xlink:href="#path-1-linkedin"></use>
            </g>
        </g>
    </g>
</svg>
