<?xml version="1.0" encoding="UTF-8"?>
<svg width="24px" height="24px" viewBox="0 0 20 20" version="1.1" xmlns="http://www.w3.org/2000/svg" xmlns:xlink="http://www.w3.org/1999/xlink">
    <title>A2533A92-33AF-479E-9D18-1955DF62A90A</title>
    <defs>
        <path d="M10,0 C4.4771525,0 0,4.4771525 0,10 C0,15.5228475 4.4771525,20 10,20 C15.5228475,20 20,15.5228475 20,10 C20,7.3478351 18.9464316,4.80429597 17.0710678,2.92893219 C15.195704,1.0535684 12.6521649,0 10,0 Z M17.93,9 L15,9 C14.8521086,6.65565637 14.0634483,4.39690569 12.72,2.47 C15.5454661,3.49511174 17.5579203,6.01743909 17.93,9 Z M10,17.65 C8.25187021,15.8532062 7.19011828,13.4996561 7,11 L13,11 C12.8098817,13.4996561 11.7481298,15.8532062 10,17.65 L10,17.65 Z M7,9 C7.19011828,6.50034389 8.25187021,4.14679377 10,2.35 C11.7481298,4.14679377 12.8098817,6.50034389 13,9 L7,9 Z M7.28,2.47 C5.93655169,4.39690569 5.14789142,6.65565637 5,9 L2,9 C2.39117211,5.99044191 4.45161262,3.46136739 7.32,2.47 L7.28,2.47 Z M2.07,11 L5,11 C5.14789142,13.3443436 5.93655169,15.6030943 7.28,17.53 C4.45453388,16.5048883 2.44207974,13.9825609 2.07,11 Z M12.68,17.53 C14.0376648,15.6073438 14.8402777,13.3482652 15,11 L18,11 C17.6088279,14.0095581 15.5483874,16.5386326 12.68,17.53 Z" id="path-1"></path>
    </defs>
    <g id="✅-Language-Selector" stroke="none" stroke-width="1" fill="none" fill-rule="evenodd">
        <g id="Component-/-Language-Selector-/-dark-/-level-2-/-XS" transform="translate(-22.000000, -180.000000)">
            <g id="Fluid-Web-Icons/search-Copy-5" transform="translate(22.000000, 180.000000)">
                <mask id="mask-2" fill="white">
                    <use xlink:href="#path-1"></use>
                </mask>
                <use id="globe" fill="#000028" fill-rule="nonzero" xlink:href="#path-1"></use>
                <rect id="Color" fill="#00E6DC" mask="url(#mask-2)" x="-2" y="-2" width="24" height="24"></rect>
            </g>
        </g>
    </g>
</svg>
