<?xml version="1.0" encoding="UTF-8"?>
<svg width="144px" height="144px" viewBox="0 0 144 144" version="1.1" xmlns="http://www.w3.org/2000/svg" xmlns:xlink="http://www.w3.org/1999/xlink">
    <title>6E07477A-C4D8-419D-B424-CC8BF348906A</title>
    <defs>
        <filter x="-84.4%" y="-84.4%" width="268.8%" height="268.8%" filterUnits="objectBoundingBox" id="filter-1">
            <feOffset dx="0" dy="2" in="SourceAlpha" result="shadowOffsetOuter1"></feOffset>
            <feGaussianBlur stdDeviation="13" in="shadowOffsetOuter1" result="shadowBlurOuter1"></feGaussianBlur>
            <feColorMatrix values="0 0 0 0 0   0 0 0 0 0   0 0 0 0 0  0 0 0 0.5 0" type="matrix" in="shadowBlurOuter1" result="shadowMatrixOuter1"></feColorMatrix>
            <feMerge>
                <feMergeNode in="shadowMatrixOuter1"></feMergeNode>
                <feMergeNode in="SourceGraphic"></feMergeNode>
            </feMerge>
        </filter>
        <linearGradient x1="-2.22044605e-14%" y1="50%" x2="100%" y2="50%" id="linearGradient-2">
            <stop stop-color="#00FFB9" offset="0%"></stop>
            <stop stop-color="#00E6DC" offset="100%"></stop>
        </linearGradient>
        <path d="M23.7743065,22.1170183 L17.3159731,15.658685 C20.4571535,11.6457011 19.9521077,5.88517913 16.1605513,2.48001332 C12.3689948,-0.92515249 6.5875122,-0.810510312 2.93392661,2.74228671 C-0.719658979,6.29508373 -0.995944482,12.0710989 2.30185265,15.956403 C5.59964978,19.8417072 11.3437942,20.5076574 15.4430565,17.479935 L21.9013898,23.9382683 L23.7743065,22.1170183 Z M2.52638979,9.78160168 C2.52638979,5.85807877 5.70703354,2.67743501 9.63055645,2.67743501 C13.5540794,2.67743501 16.7347231,5.85807877 16.7347231,9.78160168 C16.7347231,13.7051246 13.5540794,16.8857683 9.63055645,16.8857683 C5.70998194,16.8786594 2.53349873,13.7021762 2.52638979,9.78160168 Z" id="path-3"></path>
    </defs>
    <g id="✅Gallery" stroke="none" stroke-width="1" fill="none" fill-rule="evenodd">
        <g id="Component-/-Gallery-/-L-/-dark-/-image-16:9-Hover" transform="translate(-649.000000, -333.000000)">
            <g id="Group" filter="url(#filter-1)" transform="translate(689.000000, 373.000000)">
                <rect id="Background" fill="url(#linearGradient-2)" x="0" y="0" width="64" height="64" rx="32"></rect>
                <g id="Fluid-Web-Icons/arrow-left" transform="translate(19.931944, 19.780898)">
                    <mask id="mask-4" fill="white">
                        <use xlink:href="#path-3"></use>
                    </mask>
                    <use id="search" fill="#000028" fill-rule="nonzero" xlink:href="#path-3"></use>
                    <rect id="Color" fill="#000028" mask="url(#mask-4)" x="-3.93194355" y="-3.78089832" width="31" height="31"></rect>
                </g>
            </g>
        </g>
    </g>
</svg>