<svg width="24" height="24" viewBox="0 0 24 24" fill="none" xmlns="http://www.w3.org/2000/svg">
<path d="M20.1621 15.3358L17.8514 13.0252L16.9774 12.1512L15.8047 12.542L13.5114 13.3064L10.6382 10.4332L11.4026 8.13989L11.7935 6.96722L10.9194 6.0932L8.60883 3.78259L7.19465 2.36841L5.78046 3.78253L5.49213 4.0708C3.24946 6.31348 2.6023 9.75702 3.88172 12.6397C4.57825 14.209 5.60578 15.679 6.93568 17.0089C8.2657 18.3389 9.73573 19.3664 11.3049 20.0629C12.2883 20.4994 13.3325 20.7206 14.4084 20.7206C16.4702 20.7206 18.4112 19.9152 19.8738 18.4526L20.1621 18.1642L21.5763 16.75L20.1621 15.3358ZM18.4596 17.0383C17.3627 18.1352 15.8968 18.7206 14.4084 18.7206C13.6342 18.7206 12.8538 18.5622 12.1163 18.2349C10.9505 17.7175 9.65021 16.895 8.34992 15.5947C7.04963 14.2944 6.22718 12.9941 5.70978 11.8283C4.75318 9.67309 5.23895 7.1524 6.90631 5.48504L7.19458 5.19677L9.50525 7.50744L8.66925 10.0154C8.47351 10.6025 8.62634 11.2498 9.06396 11.6874L12.2572 14.8807C12.5686 15.1921 12.9861 15.3593 13.4127 15.3593C13.5856 15.3593 13.7599 15.3318 13.9292 15.2754L16.4372 14.4394L18.7479 16.7501L18.4596 17.0383Z" fill="#000028"/>
<mask id="mask0_1832_13694" style="mask-type:alpha" maskUnits="userSpaceOnUse" x="3" y="2" width="19" height="19">
<path d="M20.1621 15.3358L17.8514 13.0252L16.9774 12.1512L15.8047 12.542L13.5114 13.3064L10.6382 10.4332L11.4026 8.13989L11.7935 6.96722L10.9194 6.0932L8.60883 3.78259L7.19465 2.36841L5.78046 3.78253L5.49213 4.0708C3.24946 6.31348 2.6023 9.75702 3.88172 12.6397C4.57825 14.209 5.60578 15.679 6.93568 17.0089C8.2657 18.3389 9.73573 19.3664 11.3049 20.0629C12.2883 20.4994 13.3325 20.7206 14.4084 20.7206C16.4702 20.7206 18.4112 19.9152 19.8738 18.4526L20.1621 18.1642L21.5763 16.75L20.1621 15.3358ZM18.4596 17.0383C17.3627 18.1352 15.8968 18.7206 14.4084 18.7206C13.6342 18.7206 12.8538 18.5622 12.1163 18.2349C10.9505 17.7175 9.65021 16.895 8.34992 15.5947C7.04963 14.2944 6.22718 12.9941 5.70978 11.8283C4.75318 9.67309 5.23895 7.1524 6.90631 5.48504L7.19458 5.19677L9.50525 7.50744L8.66925 10.0154C8.47351 10.6025 8.62634 11.2498 9.06396 11.6874L12.2572 14.8807C12.5686 15.1921 12.9861 15.3593 13.4127 15.3593C13.5856 15.3593 13.7599 15.3318 13.9292 15.2754L16.4372 14.4394L18.7479 16.7501L18.4596 17.0383Z" fill="#000028"/>
</mask>
<g mask="url(#mask0_1832_13694)">
<rect width="24" height="24" fill="white"/>
</g>
</svg>
