<svg width="24" height="24" viewBox="0 0 24 24" fill="none" xmlns="http://www.w3.org/2000/svg">
<path d="M21.62 5.24991C21.41 6.60991 19.99 15.8499 19.53 18.7499C19.5309 18.967 19.4761 19.1807 19.3708 19.3706C19.2656 19.5605 19.1134 19.7203 18.9289 19.8346C18.7443 19.9489 18.5335 20.0141 18.3166 20.0238C18.0998 20.0334 17.884 19.9874 17.69 19.8899C17.086 19.6779 16.5165 19.3781 16 18.9999C14.41 17.9399 12.79 16.9299 11.29 15.7499C10.57 15.1799 10.56 14.6499 11.29 14.0199C13.03 12.4332 14.74 10.8066 16.42 9.13991C16.64 8.91991 17.14 8.42991 16.86 8.13991C16.58 7.84991 16 8.25991 15.72 8.44991C13.38 10.0099 11.02 11.5599 8.71999 13.1599C8.33656 13.449 7.88795 13.6394 7.41365 13.7144C6.93935 13.7894 6.45389 13.7466 5.99999 13.5899C4.89999 13.2599 3.80999 12.8999 2.72999 12.5399C2.28999 12.3999 1.12999 11.9299 3.27999 11.0499C8.76999 8.76991 14.37 6.47991 19.88 4.20991C21.22 3.69991 21.78 4.14991 21.62 5.24991Z" fill="#000028"/>
<mask id="mask0_2718_16301" style="mask-type:alpha" maskUnits="userSpaceOnUse" x="2" y="4" width="20" height="17">
<path d="M21.62 5.24991C21.41 6.60991 19.99 15.8499 19.53 18.7499C19.5309 18.967 19.4761 19.1807 19.3708 19.3706C19.2656 19.5605 19.1134 19.7203 18.9289 19.8346C18.7443 19.9489 18.5335 20.0141 18.3166 20.0238C18.0998 20.0334 17.884 19.9874 17.69 19.8899C17.086 19.6779 16.5165 19.3781 16 18.9999C14.41 17.9399 12.79 16.9299 11.29 15.7499C10.57 15.1799 10.56 14.6499 11.29 14.0199C13.03 12.4332 14.74 10.8066 16.42 9.13991C16.64 8.91991 17.14 8.42991 16.86 8.13991C16.58 7.84991 16 8.25991 15.72 8.44991C13.38 10.0099 11.02 11.5599 8.71999 13.1599C8.33656 13.449 7.88795 13.6394 7.41365 13.7144C6.93935 13.7894 6.45389 13.7466 5.99999 13.5899C4.89999 13.2599 3.80999 12.8999 2.72999 12.5399C2.28999 12.3999 1.12999 11.9299 3.27999 11.0499C8.76999 8.76991 14.37 6.47991 19.88 4.20991C21.22 3.69991 21.78 4.14991 21.62 5.24991Z" fill="#000028"/>
</mask>
<g mask="url(#mask0_2718_16301)">
<rect width="24" height="24" fill="white"/>
</g>
</svg>
