<svg width="24" height="24" viewBox="0 0 24 24" fill="none" xmlns="http://www.w3.org/2000/svg">
<path d="M21 7C20.3312 7.04753 19.6599 6.9508 19.0318 6.71633C18.4036 6.48187 17.8331 6.11516 17.359 5.64103C16.8848 5.16691 16.5181 4.59644 16.2837 3.96825C16.0492 3.34006 15.9525 2.66883 16 2H12.5V15.5C12.5018 16.1372 12.3007 16.7584 11.9257 17.2736C11.5508 17.7888 11.0216 18.1713 10.4148 18.3656C9.80791 18.5599 9.15497 18.5559 8.55054 18.3542C7.9461 18.1525 7.42158 17.7637 7.05297 17.2439C6.68435 16.7242 6.4908 16.1006 6.50035 15.4635C6.5099 14.8263 6.72207 14.2088 7.10609 13.7004C7.49012 13.1919 8.02607 12.8189 8.63628 12.6355C9.24648 12.452 9.89926 12.4676 10.5 12.68V9.08C10.1692 9.02812 9.83488 9.00137 9.5 9C8.21442 9 6.95772 9.38122 5.8888 10.0954C4.81988 10.8097 3.98676 11.8248 3.49479 13.0126C3.00282 14.2003 2.87409 15.5072 3.1249 16.7681C3.3757 18.029 3.99477 19.1872 4.90381 20.0962C5.81285 21.0052 6.97104 21.6243 8.23192 21.8751C9.49279 22.1259 10.7997 21.9972 11.9874 21.5052C13.1752 21.0132 14.1903 20.1801 14.9046 19.1112C15.6188 18.0423 16 16.7856 16 15.5V9.05C17.482 10.0271 19.2252 10.5326 21 10.5V7Z" fill="#000028"/>
<mask id="mask0_2856_17031" style="mask-type:alpha" maskUnits="userSpaceOnUse" x="3" y="2" width="18" height="20">
<path d="M21 7C20.3312 7.04753 19.6599 6.9508 19.0318 6.71633C18.4036 6.48187 17.8331 6.11516 17.359 5.64103C16.8848 5.16691 16.5181 4.59644 16.2837 3.96825C16.0492 3.34006 15.9525 2.66883 16 2H12.5V15.5C12.5018 16.1372 12.3007 16.7584 11.9257 17.2736C11.5508 17.7888 11.0216 18.1713 10.4148 18.3656C9.80791 18.5599 9.15497 18.5559 8.55054 18.3542C7.9461 18.1525 7.42158 17.7637 7.05297 17.2439C6.68435 16.7242 6.4908 16.1006 6.50035 15.4635C6.5099 14.8263 6.72207 14.2088 7.10609 13.7004C7.49012 13.1919 8.02607 12.8189 8.63628 12.6355C9.24648 12.452 9.89926 12.4676 10.5 12.68V9.08C10.1692 9.02812 9.83488 9.00137 9.5 9C8.21442 9 6.95772 9.38122 5.8888 10.0954C4.81988 10.8097 3.98676 11.8248 3.49479 13.0126C3.00282 14.2003 2.87409 15.5072 3.1249 16.7681C3.3757 18.029 3.99477 19.1872 4.90381 20.0962C5.81285 21.0052 6.97104 21.6243 8.23192 21.8751C9.49279 22.1259 10.7997 21.9972 11.9874 21.5052C13.1752 21.0132 14.1903 20.1801 14.9046 19.1112C15.6188 18.0423 16 16.7856 16 15.5V9.05C17.482 10.0271 19.2252 10.5326 21 10.5V7Z" fill="#000028"/>
</mask>
<g mask="url(#mask0_2856_17031)">
<rect width="24" height="24" fill="white"/>
</g>
</svg>
