<?xml version="1.0" encoding="UTF-8"?>
<svg width="20px" height="18px" viewBox="0 0 20 18" version="1.1" xmlns="http://www.w3.org/2000/svg" xmlns:xlink="http://www.w3.org/1999/xlink">
    <title>BED1FC6B-90D8-435B-8AB9-C52DD375F037</title>
    <defs>
        <path d="M6.27,16.2607468 C9.38114705,16.2956732 12.3759098,15.0793247 14.5815955,12.8849213 C16.7872812,10.6905178 18.0189714,7.70203209 18,4.59074684 C18,4.42074684 18,4.24074684 18,4.06074684 C18.7870549,3.47821161 19.4642613,2.7603728 20,1.94074684 C19.2519858,2.27714334 18.4554836,2.49314394 17.64,2.58074684 C18.4975026,2.07191204 19.1407853,1.26869714 19.45,0.320746843 C18.644786,0.803350283 17.7615415,1.14175815 16.84,1.32074684 C15.5741776,-0.0519703273 13.5407201,-0.395995057 11.8937898,0.483936303 C10.2468594,1.36386766 9.40251721,3.24545965 9.84,5.06074684 C6.53593238,4.89702915 3.45692866,3.33753376 1.37,0.770746843 C0.287560993,2.644134 0.842875966,5.03592368 2.64,6.24074684 C1.98809387,6.22222361 1.35018468,6.04731302 0.78,5.73074684 L0.78,5.78074684 C0.790074881,7.72872721 2.16943105,9.40067408 4.08,9.78074684 C3.47467399,9.95346393 2.83659555,9.97747764 2.22,9.85074684 C2.7613042,11.5223967 4.30322156,12.6667885 6.06,12.7007468 C4.61794168,13.8397823 2.83758499,14.4660738 1,14.4807468 C0.665735253,14.4818429 0.331735618,14.4618029 0,14.4207468 C1.87551124,15.6274802 4.05981722,16.2664505 6.29,16.2607468" id="path-1-twitter"></path>
    </defs>
    <g id="✅✅-Footer" stroke="none" stroke-width="1" fill-rule="evenodd">
        <g id="Component-/-Footer-/-XS-" transform="translate(-222.000000, -171.000000)">
            <g id="Fluid-Web-Icons/linked-in-Copy-9" transform="translate(222.000000, 171.859253)">
                <use id="twitter" fill-rule="nonzero" xlink:href="#path-1-twitter"></use>
            </g>
        </g>
    </g>
</svg>
