<svg width="24" height="24" viewBox="0 0 24 24" fill="none" xmlns="http://www.w3.org/2000/svg">
<path d="M21.9999 17.3C22.018 17.3855 22.0166 17.474 21.9956 17.5589C21.9747 17.6438 21.9349 17.7229 21.8791 17.7902C21.8233 17.8575 21.753 17.9113 21.6735 17.9477C21.594 17.984 21.5073 18.0019 21.4199 18H18.8799C18.68 17.9694 18.4884 17.8987 18.3166 17.7921C18.1447 17.6856 17.9962 17.5454 17.8799 17.38C17.2876 16.6819 16.6601 16.0144 15.9999 15.38C15.4299 14.92 14.7899 14.26 13.9999 14.38C13.8299 14.38 13.5199 14.46 13.5199 14.96V17.3C13.5199 17.91 12.8399 17.96 12.2699 17.96C11.5925 17.9541 10.9193 17.8531 10.2699 17.66C9.49697 17.4128 8.76797 17.0449 8.10991 16.57C7.43304 16.0913 6.81833 15.5304 6.27991 14.9C5.81489 14.3597 5.38724 13.7884 4.99991 13.19C3.55635 11.2607 2.53427 9.04959 1.99991 6.7C1.9823 6.61694 1.98315 6.53103 2.00239 6.44833C2.02162 6.36563 2.05878 6.28817 2.11124 6.2214C2.1637 6.15464 2.23017 6.10021 2.30597 6.06195C2.38177 6.02369 2.46504 6.00255 2.54991 6H5.15991C5.51991 6 5.64991 6.13 5.77991 6.49C6.27149 7.86952 6.87344 9.20718 7.57991 10.49C7.94991 11.09 8.91991 12.76 9.64991 12.76C10.0599 12.76 9.99991 12.29 9.99991 11.88V8.35C9.93118 7.80267 9.67289 7.2967 9.26991 6.92C9.19512 6.8445 9.14428 6.74861 9.12374 6.64434C9.10321 6.54007 9.11389 6.43206 9.15446 6.33384C9.19503 6.23561 9.26368 6.15155 9.35181 6.09216C9.43995 6.03278 9.54364 6.00072 9.64991 6H12.9999C13.1325 6 13.2597 6.05268 13.3535 6.14645C13.4472 6.24021 13.4999 6.36739 13.4999 6.5V11.5C13.4999 12.33 14.6499 11.56 15.0399 11.12C16.1579 9.77857 17.0588 8.27028 17.7099 6.65C17.7709 6.48057 17.8764 6.33074 18.0155 6.21633C18.1545 6.10192 18.3219 6.02718 18.4999 6H20.9999C21.6599 6 21.6799 6.53 21.4499 7.11C20.6749 8.78986 19.7229 10.3822 18.6099 11.86C18.3499 12.22 18.2599 12.48 18.5599 12.86C18.8599 13.24 19.2899 13.62 19.6499 14C20.2853 14.6605 20.8766 15.362 21.4199 16.1C21.7008 16.4515 21.899 16.8616 21.9999 17.3Z" fill="#000028"/>
<mask id="mask0_2718_16264" style="mask-type:alpha" maskUnits="userSpaceOnUse" x="1" y="6" width="22" height="13">
<path d="M21.9999 17.3C22.018 17.3855 22.0166 17.474 21.9956 17.5589C21.9747 17.6438 21.9349 17.7229 21.8791 17.7902C21.8233 17.8575 21.753 17.9113 21.6735 17.9477C21.594 17.984 21.5073 18.0019 21.4199 18H18.8799C18.68 17.9694 18.4884 17.8987 18.3166 17.7921C18.1447 17.6856 17.9962 17.5454 17.8799 17.38C17.2876 16.6819 16.6601 16.0144 15.9999 15.38C15.4299 14.92 14.7899 14.26 13.9999 14.38C13.8299 14.38 13.5199 14.46 13.5199 14.96V17.3C13.5199 17.91 12.8399 17.96 12.2699 17.96C11.5925 17.9541 10.9193 17.8531 10.2699 17.66C9.49697 17.4128 8.76797 17.0449 8.10991 16.57C7.43304 16.0913 6.81833 15.5304 6.27991 14.9C5.81489 14.3597 5.38724 13.7884 4.99991 13.19C3.55635 11.2607 2.53427 9.04959 1.99991 6.7C1.9823 6.61694 1.98315 6.53103 2.00239 6.44833C2.02162 6.36563 2.05878 6.28817 2.11124 6.2214C2.1637 6.15464 2.23017 6.10021 2.30597 6.06195C2.38177 6.02369 2.46504 6.00255 2.54991 6H5.15991C5.51991 6 5.64991 6.13 5.77991 6.49C6.27149 7.86952 6.87344 9.20718 7.57991 10.49C7.94991 11.09 8.91991 12.76 9.64991 12.76C10.0599 12.76 9.99991 12.29 9.99991 11.88V8.35C9.93118 7.80267 9.67289 7.2967 9.26991 6.92C9.19512 6.8445 9.14428 6.74861 9.12374 6.64434C9.10321 6.54007 9.11389 6.43206 9.15446 6.33384C9.19503 6.23561 9.26368 6.15155 9.35181 6.09216C9.43995 6.03278 9.54364 6.00072 9.64991 6H12.9999C13.1325 6 13.2597 6.05268 13.3535 6.14645C13.4472 6.24021 13.4999 6.36739 13.4999 6.5V11.5C13.4999 12.33 14.6499 11.56 15.0399 11.12C16.1579 9.77857 17.0588 8.27028 17.7099 6.65C17.7709 6.48057 17.8764 6.33074 18.0155 6.21633C18.1545 6.10192 18.3219 6.02718 18.4999 6H20.9999C21.6599 6 21.6799 6.53 21.4499 7.11C20.6749 8.78986 19.7229 10.3822 18.6099 11.86C18.3499 12.22 18.2599 12.48 18.5599 12.86C18.8599 13.24 19.2899 13.62 19.6499 14C20.2853 14.6605 20.8766 15.362 21.4199 16.1C21.7008 16.4515 21.899 16.8616 21.9999 17.3Z" fill="#000028"/>
</mask>
<g mask="url(#mask0_2718_16264)">
<rect width="24" height="24" fill="white"/>
</g>
</svg>
