<svg width="24" height="24" viewBox="0 0 24 24" fill="none" xmlns="http://www.w3.org/2000/svg">
<path d="M22 14.62C22 11.93 19.37 9.75 16.12 9.75C12.87 9.75 10.25 11.93 10.25 14.62C10.25 17.31 12.88 19.5 16.12 19.5C16.6996 19.4979 17.2769 19.4274 17.84 19.29C17.8666 19.2775 17.8956 19.271 17.925 19.271C17.9544 19.271 17.9834 19.2775 18.01 19.29L19.75 20.22C19.7934 20.2438 19.8429 20.2542 19.8923 20.2498C19.9416 20.2455 19.9885 20.2266 20.0271 20.1955C20.0656 20.1644 20.0941 20.1226 20.1089 20.0753C20.1236 20.0281 20.124 19.9775 20.11 19.93L19.78 18.61C19.7703 18.5616 19.7745 18.5115 19.7922 18.4655C19.8099 18.4194 19.8404 18.3794 19.88 18.35C20.5093 17.9467 21.031 17.3964 21.4004 16.7467C21.7697 16.0969 21.9755 15.367 22 14.62ZM14 14C13.7348 14 13.4804 13.8946 13.2929 13.7071C13.1054 13.5196 13 13.2652 13 13C13 12.7348 13.1054 12.4804 13.2929 12.2929C13.4804 12.1054 13.7348 12 14 12C14.2652 12 14.5196 12.1054 14.7071 12.2929C14.8946 12.4804 15 12.7348 15 13C15 13.2652 14.8946 13.5196 14.7071 13.7071C14.5196 13.8946 14.2652 14 14 14ZM18 14C17.7348 14 17.4804 13.8946 17.2929 13.7071C17.1054 13.5196 17 13.2652 17 13C17 12.7348 17.1054 12.4804 17.2929 12.2929C17.4804 12.1054 17.7348 12 18 12C18.2652 12 18.5196 12.1054 18.7071 12.2929C18.8946 12.4804 19 12.7348 19 13C19 13.2652 18.8946 13.5196 18.7071 13.7071C18.5196 13.8946 18.2652 14 18 14Z" fill="#000028"/>
<path d="M16.12 8.75H16.34C15.65 6 12.74 4 9.25 4C5.25 4 2 6.69 2 10C2.02673 10.9339 2.28462 11.8465 2.75058 12.6563C3.21654 13.4661 3.87603 14.1476 4.67 14.64C4.71363 14.6681 4.74696 14.7097 4.76499 14.7583C4.78302 14.807 4.78477 14.8602 4.77 14.91L4.39 16.45C4.37597 16.4975 4.37637 16.5481 4.39113 16.5953C4.40589 16.6426 4.43436 16.6844 4.47293 16.7155C4.51149 16.7466 4.55841 16.7655 4.60774 16.7698C4.65707 16.7742 4.70658 16.7638 4.75 16.74L6.75 15.74C6.77846 15.7279 6.80907 15.7217 6.84 15.7217C6.87093 15.7217 6.90154 15.7279 6.93 15.74C7.68796 15.9315 8.46845 16.0189 9.25 16H9.45C9.3172 15.5555 9.24983 15.094 9.25 14.63C9.25 11.39 12.33 8.75 16.12 8.75ZM11.5 7C11.7652 7 12.0196 7.10536 12.2071 7.29289C12.3946 7.48043 12.5 7.73478 12.5 8C12.5 8.26522 12.3946 8.51957 12.2071 8.70711C12.0196 8.89464 11.7652 9 11.5 9C11.2348 9 10.9804 8.89464 10.7929 8.70711C10.6054 8.51957 10.5 8.26522 10.5 8C10.5 7.73478 10.6054 7.48043 10.7929 7.29289C10.9804 7.10536 11.2348 7 11.5 7ZM7 9C6.73478 9 6.48043 8.89464 6.29289 8.70711C6.10536 8.51957 6 8.26522 6 8C6 7.73478 6.10536 7.48043 6.29289 7.29289C6.48043 7.10536 6.73478 7 7 7C7.26522 7 7.51957 7.10536 7.70711 7.29289C7.89464 7.48043 8 7.73478 8 8C8 8.26522 7.89464 8.51957 7.70711 8.70711C7.51957 8.89464 7.26522 9 7 9Z" fill="#000028"/>
<mask id="mask0_2718_16282" style="mask-type:alpha" maskUnits="userSpaceOnUse" x="2" y="4" width="20" height="17">
<path d="M22 14.62C22 11.93 19.37 9.75 16.12 9.75C12.87 9.75 10.25 11.93 10.25 14.62C10.25 17.31 12.88 19.5 16.12 19.5C16.6996 19.4979 17.2769 19.4274 17.84 19.29C17.8666 19.2775 17.8956 19.271 17.925 19.271C17.9544 19.271 17.9834 19.2775 18.01 19.29L19.75 20.22C19.7934 20.2438 19.8429 20.2542 19.8923 20.2498C19.9416 20.2455 19.9885 20.2266 20.0271 20.1955C20.0656 20.1644 20.0941 20.1226 20.1089 20.0753C20.1236 20.0281 20.124 19.9775 20.11 19.93L19.78 18.61C19.7703 18.5616 19.7745 18.5115 19.7922 18.4655C19.8099 18.4194 19.8404 18.3794 19.88 18.35C20.5093 17.9467 21.031 17.3964 21.4004 16.7467C21.7697 16.0969 21.9755 15.367 22 14.62ZM14 14C13.7348 14 13.4804 13.8946 13.2929 13.7071C13.1054 13.5196 13 13.2652 13 13C13 12.7348 13.1054 12.4804 13.2929 12.2929C13.4804 12.1054 13.7348 12 14 12C14.2652 12 14.5196 12.1054 14.7071 12.2929C14.8946 12.4804 15 12.7348 15 13C15 13.2652 14.8946 13.5196 14.7071 13.7071C14.5196 13.8946 14.2652 14 14 14ZM18 14C17.7348 14 17.4804 13.8946 17.2929 13.7071C17.1054 13.5196 17 13.2652 17 13C17 12.7348 17.1054 12.4804 17.2929 12.2929C17.4804 12.1054 17.7348 12 18 12C18.2652 12 18.5196 12.1054 18.7071 12.2929C18.8946 12.4804 19 12.7348 19 13C19 13.2652 18.8946 13.5196 18.7071 13.7071C18.5196 13.8946 18.2652 14 18 14Z" fill="#000028"/>
<path d="M16.12 8.75H16.34C15.65 6 12.74 4 9.25 4C5.25 4 2 6.69 2 10C2.02673 10.9339 2.28462 11.8465 2.75058 12.6563C3.21654 13.4661 3.87603 14.1476 4.67 14.64C4.71363 14.6681 4.74696 14.7097 4.76499 14.7583C4.78302 14.807 4.78477 14.8602 4.77 14.91L4.39 16.45C4.37597 16.4975 4.37637 16.5481 4.39113 16.5953C4.40589 16.6426 4.43436 16.6844 4.47293 16.7155C4.51149 16.7466 4.55841 16.7655 4.60774 16.7698C4.65707 16.7742 4.70658 16.7638 4.75 16.74L6.75 15.74C6.77846 15.7279 6.80907 15.7217 6.84 15.7217C6.87093 15.7217 6.90154 15.7279 6.93 15.74C7.68796 15.9315 8.46845 16.0189 9.25 16H9.45C9.3172 15.5555 9.24983 15.094 9.25 14.63C9.25 11.39 12.33 8.75 16.12 8.75ZM11.5 7C11.7652 7 12.0196 7.10536 12.2071 7.29289C12.3946 7.48043 12.5 7.73478 12.5 8C12.5 8.26522 12.3946 8.51957 12.2071 8.70711C12.0196 8.89464 11.7652 9 11.5 9C11.2348 9 10.9804 8.89464 10.7929 8.70711C10.6054 8.51957 10.5 8.26522 10.5 8C10.5 7.73478 10.6054 7.48043 10.7929 7.29289C10.9804 7.10536 11.2348 7 11.5 7ZM7 9C6.73478 9 6.48043 8.89464 6.29289 8.70711C6.10536 8.51957 6 8.26522 6 8C6 7.73478 6.10536 7.48043 6.29289 7.29289C6.48043 7.10536 6.73478 7 7 7C7.26522 7 7.51957 7.10536 7.70711 7.29289C7.89464 7.48043 8 7.73478 8 8C8 8.26522 7.89464 8.51957 7.70711 8.70711C7.51957 8.89464 7.26522 9 7 9Z" fill="#000028"/>
</mask>
<g mask="url(#mask0_2718_16282)">
<rect width="24" height="24" fill="white"/>
</g>
</svg>
