<svg width="24" height="24" viewBox="0 0 24 24" fill="none" xmlns="http://www.w3.org/2000/svg">
<path d="M10.6 20C10.0857 20.0127 9.5711 19.9893 9.06004 19.93C7.87323 19.8191 6.71005 19.5291 5.61004 19.07C4.88751 18.7629 4.21373 18.3519 3.61004 17.85C3.08884 17.4152 2.66326 16.8773 2.36004 16.27C2.08659 15.7005 1.96269 15.0707 2.00004 14.44C2.05225 13.7476 2.22838 13.0702 2.52004 12.44C2.88647 11.6582 3.35014 10.9257 3.90004 10.26C4.73096 9.23216 5.69627 8.32067 6.77004 7.55C7.38871 7.09946 8.06041 6.72666 8.77004 6.44C9.12045 6.29569 9.48613 6.19169 9.86003 6.13C10.1898 6.06067 10.5303 6.06067 10.86 6.13C11.12 6.19105 11.3551 6.33008 11.5338 6.52847C11.7125 6.72685 11.8263 6.97512 11.86 7.24C11.9301 7.58986 11.9301 7.95014 11.86 8.3C11.86 8.48 11.78 8.65 11.73 8.82C11.7205 8.8729 11.7205 8.92709 11.73 8.98C11.7293 9.01247 11.7398 9.0442 11.7599 9.06974C11.78 9.09528 11.8083 9.11305 11.84 9.12C11.9092 9.13487 11.9808 9.13487 12.05 9.12C12.1431 9.09552 12.2335 9.06203 12.32 9.02C12.823 8.81624 13.3413 8.6524 13.87 8.53C14.2681 8.4467 14.6734 8.40316 15.08 8.4C15.4214 8.40005 15.7601 8.461 16.08 8.58C16.2758 8.65169 16.4525 8.76744 16.5964 8.91829C16.7403 9.06914 16.8476 9.25107 16.91 9.45C16.9848 9.69257 17.0053 9.94863 16.97 10.2C16.9274 10.4872 16.8536 10.7688 16.75 11.04C16.7164 11.1026 16.6928 11.1701 16.68 11.24C16.6711 11.2927 16.68 11.347 16.7053 11.3941C16.7307 11.4412 16.7711 11.4785 16.82 11.5L16.99 11.57C17.4212 11.6932 17.8322 11.8784 18.21 12.12C18.5264 12.361 18.7944 12.6596 19 13C19.3226 13.4638 19.4681 14.028 19.41 14.59C19.3537 15.1759 19.1545 15.739 18.83 16.23C18.4566 16.8179 17.9867 17.3385 17.44 17.77C16.6996 18.3509 15.8774 18.8193 15 19.16C14.2816 19.4396 13.5383 19.6505 12.78 19.79C12.0607 19.9224 11.3314 19.9927 10.6 20ZM9.54004 18.75C9.97156 18.7488 10.4025 18.7188 10.83 18.66C11.4944 18.5609 12.1452 18.3865 12.77 18.14C13.4678 17.8733 14.1141 17.4876 14.68 17C15.1002 16.6449 15.4409 16.2054 15.68 15.71C15.935 15.1632 15.995 14.5456 15.85 13.96C15.6982 13.4367 15.4039 12.9658 15 12.6C14.5644 12.1742 14.052 11.8349 13.49 11.6C12.6393 11.2319 11.7265 11.0284 10.8 11C10.197 10.9897 9.59426 11.0365 9.00004 11.14C8.31116 11.2617 7.63958 11.4665 7.00004 11.75C6.37374 12.0282 5.79897 12.4102 5.30004 12.88C4.93428 13.2192 4.63868 13.6269 4.43004 14.08C4.28196 14.412 4.20543 14.7715 4.20543 15.135C4.20543 15.4985 4.28196 15.858 4.43004 16.19C4.65064 16.6883 4.99485 17.122 5.43004 17.45C5.89091 17.8139 6.40757 18.1009 6.96004 18.3C7.78788 18.5968 8.6606 18.749 9.54004 18.75ZM9.85004 12.55C10.49 12.5391 11.1181 12.724 11.65 13.08C12.1525 13.4083 12.5103 13.9163 12.65 14.5C12.7715 15.0017 12.7223 15.5295 12.51 16C12.2361 16.6405 11.7532 17.1693 11.14 17.5C10.5371 17.859 9.84064 18.0297 9.14004 17.99C8.50694 17.9765 7.89437 17.7629 7.39004 17.38C6.94082 17.0403 6.62853 16.5506 6.51004 16C6.41254 15.4807 6.48623 14.9438 6.72004 14.47C6.94794 13.9983 7.29206 13.5922 7.72004 13.29C8.33479 12.8259 9.07997 12.567 9.85004 12.55ZM7.50004 16C7.49515 16.1679 7.54257 16.3331 7.63573 16.4729C7.72889 16.6126 7.86319 16.7199 8.02004 16.78C8.14481 16.8337 8.27921 16.8613 8.41504 16.8613C8.55086 16.8613 8.68526 16.8337 8.81004 16.78C9.00296 16.7306 9.18025 16.6332 9.32538 16.4968C9.4705 16.3604 9.57875 16.1895 9.64004 16C9.68286 15.8834 9.69991 15.7588 9.69 15.635C9.68009 15.5111 9.64347 15.3909 9.58264 15.2826C9.52182 15.1742 9.43825 15.0804 9.33767 15.0074C9.23709 14.9345 9.12191 14.8842 9.00004 14.86C8.70339 14.7907 8.39173 14.8304 8.12188 14.9717C7.85203 15.1131 7.64198 15.3467 7.53004 15.63C7.49353 15.7497 7.4833 15.8759 7.50004 16ZM10.64 14.74C10.6414 14.6742 10.6218 14.6096 10.5841 14.5557C10.5463 14.5017 10.4924 14.4612 10.43 14.44C10.3678 14.417 10.3013 14.4078 10.2352 14.413C10.1691 14.4181 10.1048 14.4375 10.0469 14.4698C9.98893 14.5021 9.93866 14.5465 9.8995 14.6001C9.86035 14.6536 9.83324 14.715 9.82003 14.78C9.80577 14.8565 9.81902 14.9356 9.85745 15.0034C9.89588 15.0711 9.95701 15.123 10.03 15.15C10.121 15.1798 10.2191 15.1798 10.31 15.15C10.4094 15.1227 10.4964 15.0621 10.5564 14.9784C10.6165 14.8947 10.646 14.7929 10.64 14.69V14.74ZM19.12 9.98C19.2086 9.71922 19.2525 9.44539 19.25 9.17C19.2553 8.82127 19.1912 8.47497 19.0614 8.15125C18.9316 7.82754 18.7388 7.53287 18.494 7.2844C18.2493 7.03593 17.9575 6.83862 17.6358 6.70395C17.3141 6.56929 16.9688 6.49996 16.62 6.5C16.4671 6.48515 16.313 6.48515 16.16 6.5C15.9969 6.52917 15.8521 6.62195 15.7574 6.75791C15.6627 6.89388 15.6259 7.06189 15.655 7.225C15.6842 7.38811 15.777 7.53295 15.9129 7.62765C16.0489 7.72236 16.2169 7.75917 16.38 7.73C16.5803 7.69983 16.7848 7.71317 16.9795 7.76911C17.1741 7.82506 17.3545 7.92229 17.5082 8.05419C17.6619 8.18609 17.7854 8.34956 17.8703 8.53348C17.9552 8.7174 17.9994 8.91744 18 9.12C18.0021 9.26633 17.9784 9.41187 17.93 9.55C17.9053 9.62812 17.8963 9.71037 17.9036 9.79199C17.9109 9.87361 17.9342 9.95298 17.9723 10.0255C18.0105 10.098 18.0626 10.1623 18.1257 10.2146C18.1888 10.2668 18.2617 10.3061 18.34 10.33C18.4025 10.3449 18.4676 10.3449 18.53 10.33C18.6576 10.3321 18.7827 10.2948 18.8883 10.2233C18.9939 10.1517 19.0748 10.0493 19.12 9.93V9.98ZM21.77 10.75C21.9267 10.221 22.0042 9.67171 22 9.12C21.9974 7.69487 21.4294 6.32901 20.4207 5.32223C19.4121 4.31544 18.0452 3.75 16.62 3.75C16.2606 3.75142 15.9022 3.78827 15.55 3.86C15.4529 3.8779 15.3604 3.91505 15.2779 3.96926C15.1954 4.02347 15.1245 4.09364 15.0696 4.17565C15.0146 4.25765 14.9766 4.34983 14.9578 4.44675C14.9389 4.54368 14.9397 4.64338 14.96 4.74C15.001 4.93561 15.1174 5.10721 15.284 5.21763C15.4505 5.32806 15.6539 5.36843 15.85 5.33C16.1035 5.27812 16.3614 5.25133 16.62 5.25C17.6473 5.25 18.6327 5.65741 19.3601 6.38289C20.0874 7.10837 20.4974 8.09269 20.5 9.12C20.4997 9.50629 20.4424 9.89042 20.33 10.26C20.3008 10.3545 20.2905 10.4539 20.2998 10.5525C20.3091 10.651 20.3378 10.7467 20.3843 10.8341C20.4308 10.9215 20.4941 10.9988 20.5706 11.0616C20.6471 11.1244 20.7353 11.1714 20.83 11.2C20.903 11.2098 20.977 11.2098 21.05 11.2C21.207 11.2012 21.3605 11.1538 21.4894 11.0643C21.6183 10.9747 21.7163 10.8475 21.77 10.7V10.75Z" fill="#000028"/>
<mask id="mask0_2718_16273" style="mask-type:alpha" maskUnits="userSpaceOnUse" x="1" y="3" width="22" height="18">
<path d="M10.6 20C10.0857 20.0127 9.5711 19.9893 9.06004 19.93C7.87323 19.8191 6.71005 19.5291 5.61004 19.07C4.88751 18.7629 4.21373 18.3519 3.61004 17.85C3.08884 17.4152 2.66326 16.8773 2.36004 16.27C2.08659 15.7005 1.96269 15.0707 2.00004 14.44C2.05225 13.7476 2.22838 13.0702 2.52004 12.44C2.88647 11.6582 3.35014 10.9257 3.90004 10.26C4.73096 9.23216 5.69627 8.32067 6.77004 7.55C7.38871 7.09946 8.06041 6.72666 8.77004 6.44C9.12045 6.29569 9.48613 6.19169 9.86003 6.13C10.1898 6.06067 10.5303 6.06067 10.86 6.13C11.12 6.19105 11.3551 6.33008 11.5338 6.52847C11.7125 6.72685 11.8263 6.97512 11.86 7.24C11.9301 7.58986 11.9301 7.95014 11.86 8.3C11.86 8.48 11.78 8.65 11.73 8.82C11.7205 8.8729 11.7205 8.92709 11.73 8.98C11.7293 9.01247 11.7398 9.0442 11.7599 9.06974C11.78 9.09528 11.8083 9.11305 11.84 9.12C11.9092 9.13487 11.9808 9.13487 12.05 9.12C12.1431 9.09552 12.2335 9.06203 12.32 9.02C12.823 8.81624 13.3413 8.6524 13.87 8.53C14.2681 8.4467 14.6734 8.40316 15.08 8.4C15.4214 8.40005 15.7601 8.461 16.08 8.58C16.2758 8.65169 16.4525 8.76744 16.5964 8.91829C16.7403 9.06914 16.8476 9.25107 16.91 9.45C16.9848 9.69257 17.0053 9.94863 16.97 10.2C16.9274 10.4872 16.8536 10.7688 16.75 11.04C16.7164 11.1026 16.6928 11.1701 16.68 11.24C16.6711 11.2927 16.68 11.347 16.7053 11.3941C16.7307 11.4412 16.7711 11.4785 16.82 11.5L16.99 11.57C17.4212 11.6932 17.8322 11.8784 18.21 12.12C18.5264 12.361 18.7944 12.6596 19 13C19.3226 13.4638 19.4681 14.028 19.41 14.59C19.3537 15.1759 19.1545 15.739 18.83 16.23C18.4566 16.8179 17.9867 17.3385 17.44 17.77C16.6996 18.3509 15.8774 18.8193 15 19.16C14.2816 19.4396 13.5383 19.6505 12.78 19.79C12.0607 19.9224 11.3314 19.9927 10.6 20ZM9.54004 18.75C9.97156 18.7488 10.4025 18.7188 10.83 18.66C11.4944 18.5609 12.1452 18.3865 12.77 18.14C13.4678 17.8733 14.1141 17.4876 14.68 17C15.1002 16.6449 15.4409 16.2054 15.68 15.71C15.935 15.1632 15.995 14.5456 15.85 13.96C15.6982 13.4367 15.4039 12.9658 15 12.6C14.5644 12.1742 14.052 11.8349 13.49 11.6C12.6393 11.2319 11.7265 11.0284 10.8 11C10.197 10.9897 9.59426 11.0365 9.00004 11.14C8.31116 11.2617 7.63958 11.4665 7.00004 11.75C6.37374 12.0282 5.79897 12.4102 5.30004 12.88C4.93428 13.2192 4.63868 13.6269 4.43004 14.08C4.28196 14.412 4.20543 14.7715 4.20543 15.135C4.20543 15.4985 4.28196 15.858 4.43004 16.19C4.65064 16.6883 4.99485 17.122 5.43004 17.45C5.89091 17.8139 6.40757 18.1009 6.96004 18.3C7.78788 18.5968 8.6606 18.749 9.54004 18.75ZM9.85004 12.55C10.49 12.5391 11.1181 12.724 11.65 13.08C12.1525 13.4083 12.5103 13.9163 12.65 14.5C12.7715 15.0017 12.7223 15.5295 12.51 16C12.2361 16.6405 11.7532 17.1693 11.14 17.5C10.5371 17.859 9.84064 18.0297 9.14004 17.99C8.50694 17.9765 7.89437 17.7629 7.39004 17.38C6.94082 17.0403 6.62853 16.5506 6.51004 16C6.41254 15.4807 6.48623 14.9438 6.72004 14.47C6.94794 13.9983 7.29206 13.5922 7.72004 13.29C8.33479 12.8259 9.07997 12.567 9.85004 12.55ZM7.50004 16C7.49515 16.1679 7.54257 16.3331 7.63573 16.4729C7.72889 16.6126 7.86319 16.7199 8.02004 16.78C8.14481 16.8337 8.27921 16.8613 8.41504 16.8613C8.55086 16.8613 8.68526 16.8337 8.81004 16.78C9.00296 16.7306 9.18025 16.6332 9.32538 16.4968C9.4705 16.3604 9.57875 16.1895 9.64004 16C9.68286 15.8834 9.69991 15.7588 9.69 15.635C9.68009 15.5111 9.64347 15.3909 9.58264 15.2826C9.52182 15.1742 9.43825 15.0804 9.33767 15.0074C9.23709 14.9345 9.12191 14.8842 9.00004 14.86C8.70339 14.7907 8.39173 14.8304 8.12188 14.9717C7.85203 15.1131 7.64198 15.3467 7.53004 15.63C7.49353 15.7497 7.4833 15.8759 7.50004 16ZM10.64 14.74C10.6414 14.6742 10.6218 14.6096 10.5841 14.5557C10.5463 14.5017 10.4924 14.4612 10.43 14.44C10.3678 14.417 10.3013 14.4078 10.2352 14.413C10.1691 14.4181 10.1048 14.4375 10.0469 14.4698C9.98893 14.5021 9.93866 14.5465 9.8995 14.6001C9.86035 14.6536 9.83324 14.715 9.82003 14.78C9.80577 14.8565 9.81902 14.9356 9.85745 15.0034C9.89588 15.0711 9.95701 15.123 10.03 15.15C10.121 15.1798 10.2191 15.1798 10.31 15.15C10.4094 15.1227 10.4964 15.0621 10.5564 14.9784C10.6165 14.8947 10.646 14.7929 10.64 14.69V14.74ZM19.12 9.98C19.2086 9.71922 19.2525 9.44539 19.25 9.17C19.2553 8.82127 19.1912 8.47497 19.0614 8.15125C18.9316 7.82754 18.7388 7.53287 18.494 7.2844C18.2493 7.03593 17.9575 6.83862 17.6358 6.70395C17.3141 6.56929 16.9688 6.49996 16.62 6.5C16.4671 6.48515 16.313 6.48515 16.16 6.5C15.9969 6.52917 15.8521 6.62195 15.7574 6.75791C15.6627 6.89388 15.6259 7.06189 15.655 7.225C15.6842 7.38811 15.777 7.53295 15.9129 7.62765C16.0489 7.72236 16.2169 7.75917 16.38 7.73C16.5803 7.69983 16.7848 7.71317 16.9795 7.76911C17.1741 7.82506 17.3545 7.92229 17.5082 8.05419C17.6619 8.18609 17.7854 8.34956 17.8703 8.53348C17.9552 8.7174 17.9994 8.91744 18 9.12C18.0021 9.26633 17.9784 9.41187 17.93 9.55C17.9053 9.62812 17.8963 9.71037 17.9036 9.79199C17.9109 9.87361 17.9342 9.95298 17.9723 10.0255C18.0105 10.098 18.0626 10.1623 18.1257 10.2146C18.1888 10.2668 18.2617 10.3061 18.34 10.33C18.4025 10.3449 18.4676 10.3449 18.53 10.33C18.6576 10.3321 18.7827 10.2948 18.8883 10.2233C18.9939 10.1517 19.0748 10.0493 19.12 9.93V9.98ZM21.77 10.75C21.9267 10.221 22.0042 9.67171 22 9.12C21.9974 7.69487 21.4294 6.32901 20.4207 5.32223C19.4121 4.31544 18.0452 3.75 16.62 3.75C16.2606 3.75142 15.9022 3.78827 15.55 3.86C15.4529 3.8779 15.3604 3.91505 15.2779 3.96926C15.1954 4.02347 15.1245 4.09364 15.0696 4.17565C15.0146 4.25765 14.9766 4.34983 14.9578 4.44675C14.9389 4.54368 14.9397 4.64338 14.96 4.74C15.001 4.93561 15.1174 5.10721 15.284 5.21763C15.4505 5.32806 15.6539 5.36843 15.85 5.33C16.1035 5.27812 16.3614 5.25133 16.62 5.25C17.6473 5.25 18.6327 5.65741 19.3601 6.38289C20.0874 7.10837 20.4974 8.09269 20.5 9.12C20.4997 9.50629 20.4424 9.89042 20.33 10.26C20.3008 10.3545 20.2905 10.4539 20.2998 10.5525C20.3091 10.651 20.3378 10.7467 20.3843 10.8341C20.4308 10.9215 20.4941 10.9988 20.5706 11.0616C20.6471 11.1244 20.7353 11.1714 20.83 11.2C20.903 11.2098 20.977 11.2098 21.05 11.2C21.207 11.2012 21.3605 11.1538 21.4894 11.0643C21.6183 10.9747 21.7163 10.8475 21.77 10.7V10.75Z" fill="#000028"/>
</mask>
<g mask="url(#mask0_2718_16273)">
<rect width="24" height="24" fill="white"/>
</g>
</svg>
