<svg width="24" height="24" viewBox="0 0 24 24" fill="none" xmlns="http://www.w3.org/2000/svg">
<g id="yammer">
<path id="yammer_2" fill-rule="evenodd" clip-rule="evenodd" d="M6.56691 16.4508C5.93309 18.2405 5.34637 19.0785 3.99854 19.0785C3.8683 19.0785 3.41484 19.0518 3.38561 19.049C2.95074 19.0267 2.54466 19.3096 2.42752 19.7468C2.29311 20.2434 2.58475 20.7551 3.07868 20.8966C3.43595 20.9595 3.80271 20.9827 4.13175 20.9827C6.61616 20.9827 7.43748 19.5524 8.25776 17.4642L13.1046 5.37312C13.2794 4.82534 12.975 4.23972 12.4305 4.06533C11.8954 3.89517 11.3288 4.17808 11.1372 4.69795L7.73141 13.6991H7.678L4.09544 4.63028C3.85306 4.11776 3.25345 3.86764 2.71252 4.07038C2.15761 4.27854 1.87261 4.88561 2.05489 5.44392L6.56691 16.4508ZM19.3397 7.89917C19.7428 7.57683 19.8453 6.99559 19.5614 6.55233C19.3102 6.16237 18.8401 6.00103 18.4164 6.12393C18.3793 6.14296 18.3409 6.16363 18.2998 6.18573C17.6255 6.55743 13.0669 9.7514 13.5816 10.112C14.0926 10.4692 17.2098 9.06641 19.3397 7.89917ZM19.3397 17.5039C17.2098 16.3371 14.0926 14.9341 13.5816 15.2916C13.0669 15.6517 17.6255 18.8464 18.2998 19.2173C18.3409 19.2396 18.3793 19.2602 18.4164 19.2798C18.8401 19.4032 19.3102 19.241 19.5614 18.8512C19.8453 18.4075 19.7428 17.8263 19.3397 17.5039ZM21.216 11.6515C21.1741 11.6494 21.13 11.6489 21.0841 11.6489C20.3146 11.6504 14.781 12.2573 15.0587 12.8212C15.3353 13.3792 18.7427 13.65 21.1712 13.651C21.6801 13.5628 22.0489 13.1028 22.0138 12.5769C21.981 12.1154 21.6461 11.7464 21.216 11.6515Z" fill="white"/>
<mask id="mask0_2_4813" style="mask-type:alpha" maskUnits="userSpaceOnUse" x="2" y="4" width="21" height="17">
<path id="yammer_3" fill-rule="evenodd" clip-rule="evenodd" d="M6.56691 16.4508C5.93309 18.2405 5.34637 19.0785 3.99854 19.0785C3.8683 19.0785 3.41484 19.0518 3.38561 19.049C2.95074 19.0267 2.54466 19.3096 2.42752 19.7468C2.29311 20.2434 2.58475 20.7551 3.07868 20.8966C3.43595 20.9595 3.80271 20.9827 4.13175 20.9827C6.61616 20.9827 7.43748 19.5524 8.25776 17.4642L13.1046 5.37312C13.2794 4.82534 12.975 4.23972 12.4305 4.06533C11.8954 3.89517 11.3288 4.17808 11.1372 4.69795L7.73141 13.6991H7.678L4.09544 4.63028C3.85306 4.11776 3.25345 3.86764 2.71252 4.07038C2.15761 4.27854 1.87261 4.88561 2.05489 5.44392L6.56691 16.4508ZM19.3397 7.89917C19.7428 7.57683 19.8453 6.99559 19.5614 6.55233C19.3102 6.16237 18.8401 6.00103 18.4164 6.12393C18.3793 6.14296 18.3409 6.16363 18.2998 6.18573C17.6255 6.55743 13.0669 9.7514 13.5816 10.112C14.0926 10.4692 17.2098 9.06641 19.3397 7.89917ZM19.3397 17.5039C17.2098 16.3371 14.0926 14.9341 13.5816 15.2916C13.0669 15.6517 17.6255 18.8464 18.2998 19.2173C18.3409 19.2396 18.3793 19.2602 18.4164 19.2798C18.8401 19.4032 19.3102 19.241 19.5614 18.8512C19.8453 18.4075 19.7428 17.8263 19.3397 17.5039ZM21.216 11.6515C21.1741 11.6494 21.13 11.6489 21.0841 11.6489C20.3146 11.6504 14.781 12.2573 15.0587 12.8212C15.3353 13.3792 18.7427 13.65 21.1712 13.651C21.6801 13.5628 22.0489 13.1028 22.0138 12.5769C21.981 12.1154 21.6461 11.7464 21.216 11.6515Z" fill="white"/>
</mask>
<g mask="url(#mask0_2_4813)">
<rect id="Color" width="24" height="24" fill="white"/>
</g>
</g>
</svg>
